<svg xmlns="http://www.w3.org/2000/svg" xmlns:xlink="http://www.w3.org/1999/xlink" width="500" zoomAndPan="magnify" viewBox="0 0 375 374.999991" height="500" preserveAspectRatio="xMidYMid meet" version="1.0"><defs><g/><clipPath id="8812d81ad5"><path d="M 34 150 L 139.625 150 L 139.625 274.863281 L 34 274.863281 Z M 34 150 " clip-rule="nonzero"/></clipPath></defs><path fill="#010101" d="M 58.003906 141.191406 C 57.796875 140.9375 57.355469 147.617188 57.355469 149.660156 C 57.355469 149.769531 57.292969 150.789062 56.933594 151.148438 C 56.507812 151.574219 55.925781 151.234375 55.695312 150.085938 C 54.566406 144.390625 54.34375 142.457031 54.8125 140.464844 C 53.761719 141.441406 50.449219 147.605469 49.59375 147.109375 C 49.335938 146.964844 49.125 146.632812 49.089844 146.09375 C 48.953125 144.066406 51.613281 138.925781 52.886719 137.148438 C 46.386719 141.074219 40.125 154.132812 50.023438 154.347656 C 51.046875 162.070312 57.628906 161.90625 61.246094 153.039062 C 64.078125 156.339844 67.773438 152.113281 67.15625 147.699219 C 66.617188 143.828125 61.109375 137.308594 57.3125 136.898438 C 61.785156 140.472656 62.582031 143.476562 61.785156 144.296875 C 61.3125 144.785156 58.839844 142.191406 58.003906 141.191406 Z M 49.980469 133.015625 C 45.925781 129.167969 41.003906 129.507812 36.410156 131.144531 C 32.664062 132.484375 29.882812 135.195312 31.628906 139.078125 C 26.367188 141.3125 27.71875 146.886719 33.597656 146.367188 C 34.042969 149.703125 37.011719 151.933594 39.679688 149.761719 C 44.992188 145.425781 42.863281 140.457031 52.195312 136.460938 C 48.609375 137.308594 46.214844 138.753906 44.742188 139.933594 C 43.929688 140.585938 42.863281 142.363281 41.929688 141.730469 C 39.566406 140.121094 45.308594 136.410156 47.523438 135.597656 C 46 135.546875 41.441406 136 40.261719 135.273438 C 37.335938 133.476562 44.265625 132.527344 45.1875 132.492188 C 47.644531 132.382812 49.960938 133.015625 49.980469 133.015625 Z M 50.328125 126.59375 C 50.289062 125.308594 49.652344 121.246094 50.808594 120.769531 C 52.1875 120.195312 52.304688 127.515625 52.210938 128.304688 C 52.1875 128.492188 52.410156 128.859375 52.648438 128.929688 C 54.238281 129.363281 53.222656 115.390625 52.769531 113.808594 C 51.671875 109.984375 47.941406 111.359375 46.660156 113.363281 C 44.933594 112.394531 43.28125 112.035156 41.828125 112.140625 C 38.320312 112.386719 36.050781 115.347656 36.992188 119.015625 C 35.308594 119.484375 34.222656 120.007812 33.527344 120.574219 C 31.664062 122.085938 32.132812 123.949219 33.21875 125.585938 C 37.539062 132.125 44.46875 123.703125 51.195312 131.988281 C 51.398438 132.246094 52.082031 132.894531 51.871094 131.9375 C 51.820312 131.707031 51.722656 131.410156 51.5625 131.066406 C 50.792969 129.449219 48.558594 126.859375 42.835938 125.40625 C 41.707031 124.472656 42.785156 123.992188 43.453125 123.992188 C 44.667969 123.992188 47.257812 125.320312 50.328125 126.59375 Z M 57.773438 133.382812 C 57.773438 132.527344 57.070312 131.828125 56.214844 131.828125 C 55.359375 131.828125 54.660156 132.527344 54.660156 133.382812 C 54.660156 134.246094 55.359375 134.941406 56.214844 134.941406 C 57.070312 134.941406 57.773438 134.246094 57.773438 133.382812 Z M 62.074219 126.542969 C 62.683594 126.703125 66.421875 123.171875 68.464844 122.554688 C 69.160156 122.34375 69.835938 122.273438 69.9375 122.753906 C 70.246094 124.222656 62.8125 128.191406 61.238281 131.082031 C 69.210938 125.644531 73.09375 126.839844 76.722656 125.875 C 82.453125 124.34375 76.113281 118.546875 73.769531 116.75 C 74.25 108.34375 65.824219 110.445312 65.984375 113.839844 C 64.660156 112.15625 62.949219 111.8125 61.5625 112.019531 C 57.523438 112.601562 57.851562 118.015625 58.269531 122.746094 C 58.484375 125.214844 58.816406 126.558594 59.152344 129.21875 C 59.152344 129.21875 60.089844 126.285156 62.667969 121.171875 C 63.042969 120.425781 63.351562 119.195312 64.410156 119.527344 C 65.371094 119.835938 62.324219 123.769531 61.929688 125.148438 C 61.929688 125.148438 61.554688 126.40625 62.074219 126.542969 Z M 60.363281 136.632812 C 59.714844 136.324219 67.910156 140.660156 69.21875 149.410156 C 69.21875 149.410156 73.710938 154.722656 77.535156 144.945312 C 83.925781 145 84.371094 139.175781 80.519531 136.632812 C 82.351562 123.753906 66.832031 128.851562 61.261719 133.683594 C 63.1875 133.101562 70.800781 130.074219 71.683594 131.195312 C 72.144531 131.792969 71.949219 132.921875 66.738281 134.460938 C 68.757812 134.921875 74.386719 135.539062 75.128906 137.128906 C 76.660156 140.414062 68.011719 136.984375 67.183594 136.710938 C 68.320312 137.816406 71.503906 140.304688 71.597656 141.585938 C 71.742188 143.433594 69.910156 142.730469 69.585938 142.363281 C 68.414062 141.039062 65.378906 138.011719 60.363281 136.632812 Z M 60.363281 136.632812 " fill-opacity="1" fill-rule="evenodd"/><g clip-path="url(#8812d81ad5)"><path fill="#010101" d="M 48.011719 156.554688 C 46.164062 156.183594 44.496094 155.296875 43.445312 153.585938 C 42.851562 152.628906 42.554688 151.574219 42.46875 150.472656 C 42.082031 150.863281 41.671875 151.25 41.203125 151.636719 C 40.960938 151.832031 40.707031 152.011719 40.449219 152.164062 C 37.59375 158.484375 35.726562 165.292969 34.878906 172.109375 C 34.65625 175.265625 34.726562 178.386719 35.058594 181.449219 C 36.839844 197.125 45.992188 209.5625 58.199219 219.910156 C 72.785156 232.269531 91.742188 241.632812 107.714844 249.957031 C 123.667969 258.277344 136.636719 265.546875 139.316406 273.714844 C 139.375 273.914062 139.4375 274.101562 139.488281 274.296875 L 139.488281 274.324219 C 139.539062 274.492188 139.582031 274.671875 139.617188 274.84375 C 136.972656 262.023438 122.214844 252.632812 105.105469 242.910156 C 89.792969 234.203125 72.589844 225.230469 60.503906 213.292969 C 58.679688 211.488281 56.96875 209.613281 55.402344 207.664062 C 48.269531 198.792969 44.8125 187.820312 44.933594 176.839844 C 45.007812 170.546875 46.257812 164.242188 48.671875 158.339844 C 48.398438 157.765625 48.183594 157.167969 48.011719 156.554688 Z M 48.011719 156.554688 " fill-opacity="1" fill-rule="evenodd"/></g><path fill="#010101" d="M 83.050781 135.582031 C 83.746094 136.257812 84.316406 137.054688 84.726562 137.917969 C 92.238281 138.019531 99.871094 138.523438 106.875 138.34375 C 108.765625 138.191406 110.640625 137.976562 112.503906 137.6875 C 104.292969 143.621094 94.804688 147.4375 85.164062 151.011719 C 79.183594 153.226562 73.027344 155.363281 67.292969 158.179688 C 64.675781 159.46875 62.09375 160.933594 59.738281 162.675781 C 54.207031 166.765625 50.773438 171.675781 49.457031 178.507812 C 48.515625 183.441406 49.253906 188.574219 50.671875 193.5 C 45.25 171.777344 64.617188 162.832031 64.617188 162.832031 C 71.152344 158.929688 79.5625 156.140625 88.371094 152.824219 C 83.042969 158.871094 82.820312 168.757812 84.515625 176.378906 C 82.136719 164.242188 86.148438 155.125 92.144531 151.429688 C 93.546875 166.363281 109.101562 159.582031 101.847656 152.371094 C 102.746094 153.578125 103.078125 154.714844 103.027344 155.699219 C 102.769531 154.792969 102.207031 153.789062 101.230469 152.6875 C 103.25 155.390625 102.46875 157.75 100.785156 158.65625 C 96.875 160.75 92.324219 154.378906 95.371094 150.53125 C 95.574219 150.273438 95.804688 150.027344 96.054688 149.789062 C 96.457031 149.617188 96.859375 149.445312 97.261719 149.273438 C 102.28125 148.230469 107.621094 149.746094 111.1875 153.738281 C 108.894531 149.976562 104.847656 148 100.65625 147.75 C 108.6875 143.996094 116.507812 139.207031 123.019531 132.160156 C 123.019531 132.160156 111.210938 137.207031 90.734375 135.453125 C 91.914062 135.410156 93.179688 135.34375 94.515625 135.230469 L 94.746094 135.214844 C 97.242188 134.992188 119.511719 132.699219 130.929688 119.40625 C 130.613281 119.742188 130.273438 120.066406 130 120.324219 C 128.066406 122.117188 125.789062 123.648438 123.488281 124.925781 C 112.042969 131.253906 97.175781 132.671875 83 133.273438 C 83.085938 134.035156 83.09375 134.8125 83.050781 135.582031 Z M 83.050781 135.582031 " fill-opacity="1" fill-rule="evenodd"/><path fill="#010101" d="M 81.015625 125.558594 C 91.898438 122.207031 102.316406 122.480469 102.316406 122.480469 C 94.488281 120.707031 87.335938 120.332031 80.851562 121.101562 C 81.402344 122.273438 81.65625 123.53125 81.304688 124.796875 C 81.230469 125.070312 81.136719 125.320312 81.015625 125.558594 Z M 81.015625 125.558594 " fill-opacity="1" fill-rule="evenodd"/><path fill="#010101" d="M 75.898438 179.953125 C 70.988281 177.199219 65.660156 174.804688 60.851562 179.15625 C 58.132812 181.621094 57.363281 185.433594 58.25 188.90625 C 59.398438 193.421875 63.257812 198.050781 66.265625 201.496094 C 70.5625 206.398438 75.121094 211.015625 79.160156 216.15625 C 82.511719 220.433594 85.53125 225.066406 87.433594 230.164062 C 87.9375 227.171875 87.867188 224.238281 87.398438 221.046875 C 86.84375 217.292969 85.765625 213.523438 85.679688 209.726562 C 85.566406 204.566406 87.40625 200.53125 90.769531 196.671875 C 93.179688 193.902344 96.148438 191.480469 99.144531 189.351562 C 103.53125 186.222656 108.289062 183.484375 113.054688 180.953125 C 114.746094 180.054688 116.457031 179.191406 118.167969 178.328125 C 119.554688 177.617188 120.949219 176.90625 122.292969 176.121094 C 123.976562 175.128906 126.03125 173.777344 126.886719 171.9375 C 127.460938 170.707031 127.460938 169.382812 127.21875 168.074219 C 126.828125 165.933594 125.792969 163.675781 124.800781 161.753906 C 121.667969 155.6875 121.035156 150.019531 124.070312 143.800781 C 125.578125 140.730469 127.65625 138.035156 129.496094 135.171875 C 131.910156 131.433594 133.125 127.621094 132.703125 124.019531 C 132.710938 126.285156 132.171875 128.585938 130.957031 130.929688 C 130.300781 132.203125 129.488281 133.390625 128.597656 134.511719 C 127.367188 136.078125 125.988281 137.515625 124.59375 138.933594 C 123.386719 140.15625 122.128906 141.398438 121.042969 142.730469 C 119.8125 144.238281 119.128906 145.992188 118.828125 147.898438 C 118.734375 148.515625 118.683594 149.136719 118.664062 149.761719 C 118.570312 152.621094 119.164062 155.46875 119.769531 158.246094 C 120.015625 159.382812 120.292969 160.566406 120.429688 161.71875 C 120.539062 162.632812 120.589844 163.730469 120.113281 164.550781 C 119.976562 164.789062 119.804688 165.011719 119.605469 165.210938 C 118.101562 166.722656 115.285156 166.585938 113.308594 166.484375 C 112.171875 166.421875 109.886719 166.210938 108.84375 166.578125 C 108.785156 166.59375 108.734375 166.628906 108.691406 166.664062 C 108.144531 167.125 108.144531 168.699219 108.179688 169.332031 C 108.230469 170.375 108.410156 171.425781 108.621094 172.453125 L 109.1875 175.171875 L 106.886719 173.617188 C 106.234375 173.179688 105.484375 172.777344 104.753906 172.496094 C 104.3125 172.316406 102.753906 171.75 102.445312 172.390625 C 101.992188 173.324219 102.367188 174.761719 102.667969 175.675781 L 103.214844 177.363281 L 101.453125 177.140625 C 100.453125 177.019531 95.722656 176.371094 94.996094 177.464844 C 94.753906 177.832031 94.652344 178.636719 94.574219 179.0625 C 94.386719 180.167969 94.148438 181.140625 93.636719 182.152344 C 91.871094 185.632812 88.433594 185.828125 85.105469 184.742188 C 83.53125 184.230469 82.007812 183.441406 80.570312 182.640625 C 78.996094 181.765625 77.464844 180.832031 75.898438 179.953125 Z M 75.898438 179.953125 " fill-opacity="1" fill-rule="evenodd"/><g fill="#000000" fill-opacity="1"><g transform="translate(137.211053, 165.745132)"><g><path d="M 25.308594 0 L 25.308594 -3.960938 L 6.84375 -3.960938 L 6.84375 -16.011719 L 23.542969 -16.011719 L 23.542969 -19.972656 L 6.84375 -19.972656 L 6.84375 -30.949219 L 25.136719 -30.949219 L 25.136719 -34.90625 L 2.625 -34.90625 L 2.625 0 Z M 25.308594 0 "/></g></g></g><g fill="#000000" fill-opacity="1"><g transform="translate(160.184639, 165.745132)"><g><path d="M 13.730469 0.515625 C 21.519531 0.515625 26.429688 -3.3125 26.429688 -9.46875 L 26.429688 -9.554688 C 26.429688 -15.023438 23.542969 -17.21875 14.9375 -20.058594 C 9.339844 -21.910156 7.144531 -23.242188 7.144531 -26.558594 L 7.144531 -26.601562 C 7.144531 -29.441406 9.511719 -31.679688 14.375 -31.679688 C 17.777344 -31.679688 21.261719 -30.691406 23.847656 -28.925781 L 25.480469 -32.453125 C 22.597656 -34.390625 18.421875 -35.46875 14.332031 -35.46875 C 7.1875 -35.46875 2.882812 -31.851562 2.882812 -26.515625 L 2.882812 -26.429688 C 2.882812 -21.046875 5.121094 -18.636719 12.527344 -16.226562 C 19.585938 -13.945312 22.125 -12.65625 22.125 -9.46875 L 22.125 -9.382812 C 22.125 -5.726562 18.765625 -3.3125 13.558594 -3.3125 C 9.984375 -3.3125 6.414062 -4.390625 3.746094 -6.285156 L 2.066406 -2.753906 C 5.121094 -0.644531 9.425781 0.515625 13.730469 0.515625 Z M 13.730469 0.515625 "/></g></g></g><g fill="#000000" fill-opacity="1"><g transform="translate(184.92232, 165.745132)"><g><path d="M 16.699219 0 L 16.699219 -30.949219 L 28.277344 -30.949219 L 28.277344 -34.90625 L 0.859375 -34.90625 L 0.859375 -30.949219 L 12.4375 -30.949219 L 12.4375 0 Z M 16.699219 0 "/></g></g></g><g fill="#000000" fill-opacity="1"><g transform="translate(210.004231, 165.745132)"><g><path d="M 6.84375 0 L 6.84375 -15.96875 L 25.394531 -15.96875 L 25.394531 0 L 29.65625 0 L 29.65625 -34.90625 L 25.394531 -34.90625 L 25.394531 -19.929688 L 6.84375 -19.929688 L 6.84375 -34.90625 L 2.625 -34.90625 L 2.625 0 Z M 6.84375 0 "/></g></g></g><g fill="#000000" fill-opacity="1"><g transform="translate(238.184069, 165.745132)"><g><path d="M 25.308594 0 L 25.308594 -3.960938 L 6.84375 -3.960938 L 6.84375 -16.011719 L 23.542969 -16.011719 L 23.542969 -19.972656 L 6.84375 -19.972656 L 6.84375 -30.949219 L 25.136719 -30.949219 L 25.136719 -34.90625 L 2.625 -34.90625 L 2.625 0 Z M 25.308594 0 "/></g></g></g><g fill="#000000" fill-opacity="1"><g transform="translate(261.157654, 165.745132)"><g><path d="M 16.699219 0 L 16.699219 -30.949219 L 28.277344 -30.949219 L 28.277344 -34.90625 L 0.859375 -34.90625 L 0.859375 -30.949219 L 12.4375 -30.949219 L 12.4375 0 Z M 16.699219 0 "/></g></g></g><g fill="#000000" fill-opacity="1"><g transform="translate(286.239565, 165.745132)"><g><path d="M 6.84375 0 L 6.84375 -34.90625 L 2.625 -34.90625 L 2.625 0 Z M 6.84375 0 "/></g></g></g><g fill="#000000" fill-opacity="1"><g transform="translate(291.65818, 165.745132)"><g><path d="M 20.015625 0.515625 C 24.535156 0.515625 28.148438 -0.816406 31.207031 -2.839844 L 29.527344 -6.328125 C 26.515625 -4.347656 23.328125 -3.445312 20.015625 -3.445312 C 12.570312 -3.445312 6.285156 -8.910156 6.285156 -17.390625 L 6.285156 -17.476562 C 6.285156 -26.171875 12.613281 -31.464844 20.058594 -31.464844 C 23.328125 -31.464844 26.515625 -30.558594 29.527344 -28.582031 L 31.207031 -32.023438 C 28.0625 -34.175781 24.277344 -35.46875 20.058594 -35.46875 C 9.46875 -35.46875 1.894531 -28.0625 1.894531 -17.476562 L 1.894531 -17.390625 C 1.894531 -6.800781 9.46875 0.515625 20.015625 0.515625 Z M 20.015625 0.515625 "/></g></g></g><g fill="#000000" fill-opacity="1"><g transform="translate(167.957171, 211.30812)"><g><path d="M 10.035156 0.378906 C 12.75 0.378906 14.703125 0.0273438 16.832031 -0.847656 L 16.832031 -23.660156 L 13.917969 -23.660156 L 13.917969 -16.132812 C 12.601562 -16.453125 11.261719 -16.746094 9.917969 -16.746094 C 4.464844 -16.746094 1.285156 -13.097656 1.285156 -8.226562 L 1.285156 -8.167969 C 1.285156 -3.296875 4.582031 0.378906 10.035156 0.378906 Z M 10.035156 -2.21875 C 6.214844 -2.21875 4.230469 -4.871094 4.230469 -8.167969 L 4.230469 -8.226562 C 4.230469 -11.496094 6.214844 -14.148438 10.035156 -14.148438 C 11.347656 -14.148438 12.691406 -13.828125 13.917969 -13.507812 L 13.917969 -2.65625 C 12.71875 -2.390625 11.496094 -2.21875 10.035156 -2.21875 Z M 10.035156 -2.21875 "/></g></g></g><g fill="#000000" fill-opacity="1"><g transform="translate(183.819676, 211.30812)"><g><path d="M 8.78125 0.378906 C 10.445312 0.378906 13.304688 0.0585938 15.988281 -0.410156 L 15.988281 -16.222656 L 13.070312 -16.222656 L 13.070312 -2.539062 C 11.582031 -2.277344 10.09375 -2.101562 8.925781 -2.101562 C 6.273438 -2.101562 4.667969 -3.121094 4.667969 -5.921875 L 4.667969 -16.222656 L 1.78125 -16.222656 L 1.78125 -5.6875 C 1.78125 -1.050781 4.871094 0.378906 8.78125 0.378906 Z M 8.78125 0.378906 "/></g></g></g><g fill="#000000" fill-opacity="1"><g transform="translate(198.809316, 211.30812)"><g/></g></g><g fill="#000000" fill-opacity="1"><g transform="translate(201.344803, 211.30812)"><g><path d="M 4.667969 0 L 4.667969 -13.742188 C 5.921875 -14.003906 7.089844 -14.179688 8.109375 -14.179688 C 10.5625 -14.179688 12.136719 -13.15625 12.136719 -10.355469 L 12.136719 0 L 15.054688 0 L 15.054688 -10.355469 C 15.054688 -12.691406 15.839844 -14.179688 18.90625 -14.179688 C 21.96875 -14.179688 22.757812 -12.691406 22.757812 -10.355469 L 22.757812 0 L 25.644531 0 L 25.644531 -10.648438 C 25.644531 -14.9375 23.515625 -16.773438 19.167969 -16.773438 C 16.28125 -16.773438 14.5 -15.8125 13.59375 -13.886719 C 12.71875 -15.957031 10.734375 -16.773438 8.257812 -16.773438 C 6.886719 -16.773438 4.550781 -16.511719 1.78125 -15.988281 L 1.78125 0 Z M 4.667969 0 "/></g></g></g><g fill="#000000" fill-opacity="1"><g transform="translate(226.017779, 211.30812)"><g><path d="M 10.035156 0.378906 C 15.113281 0.378906 18.757812 -3.265625 18.757812 -8.167969 L 18.757812 -8.226562 C 18.757812 -13.097656 15.113281 -16.773438 10.035156 -16.773438 C 4.960938 -16.773438 1.285156 -13.097656 1.285156 -8.226562 L 1.285156 -8.167969 C 1.285156 -3.265625 4.960938 0.378906 10.035156 0.378906 Z M 10.035156 -2.21875 C 6.59375 -2.21875 4.230469 -4.871094 4.230469 -8.199219 L 4.230469 -8.226562 C 4.230469 -11.554688 6.59375 -14.179688 10.035156 -14.179688 C 13.480469 -14.179688 15.839844 -11.554688 15.839844 -8.226562 L 15.839844 -8.199219 C 15.839844 -4.871094 13.480469 -2.21875 10.035156 -2.21875 Z M 10.035156 -2.21875 "/></g></g></g><g fill="#000000" fill-opacity="1"><g transform="translate(243.34076, 211.30812)"><g><path d="M 4.667969 0 L 4.667969 -13.710938 C 6.15625 -14.003906 7.671875 -14.148438 8.8125 -14.148438 C 11.496094 -14.148438 13.070312 -13.15625 13.070312 -10.328125 L 13.070312 0 L 15.988281 0 L 15.988281 -10.679688 C 15.988281 -15.316406 12.867188 -16.746094 8.984375 -16.746094 C 7.292969 -16.746094 4.433594 -16.425781 1.78125 -15.957031 L 1.78125 0 Z M 4.667969 0 "/></g></g></g><g fill="#000000" fill-opacity="1"><g transform="translate(258.330402, 211.30812)"><g><path d="M 10.035156 0.378906 C 12.75 0.378906 14.703125 0.0273438 16.832031 -0.847656 L 16.832031 -23.660156 L 13.917969 -23.660156 L 13.917969 -16.132812 C 12.601562 -16.453125 11.261719 -16.746094 9.917969 -16.746094 C 4.464844 -16.746094 1.285156 -13.097656 1.285156 -8.226562 L 1.285156 -8.167969 C 1.285156 -3.296875 4.582031 0.378906 10.035156 0.378906 Z M 10.035156 -2.21875 C 6.214844 -2.21875 4.230469 -4.871094 4.230469 -8.167969 L 4.230469 -8.226562 C 4.230469 -11.496094 6.214844 -14.148438 10.035156 -14.148438 C 11.347656 -14.148438 12.691406 -13.828125 13.917969 -13.507812 L 13.917969 -2.65625 C 12.71875 -2.390625 11.496094 -2.21875 10.035156 -2.21875 Z M 10.035156 -2.21875 "/></g></g></g><g fill="#000000" fill-opacity="1"><g transform="translate(274.195041, 211.30812)"><g><path d="M 17.417969 -7.878906 C 17.417969 -13.214844 14.441406 -16.773438 9.335938 -16.773438 C 4.347656 -16.773438 1.285156 -13.15625 1.285156 -8.226562 L 1.285156 -8.199219 C 1.285156 -3.09375 4.582031 0.351562 9.890625 0.351562 C 12.894531 0.351562 15.023438 -0.640625 16.542969 -1.691406 L 15.289062 -3.996094 C 14.0625 -3.0625 12.28125 -2.21875 10.007812 -2.21875 C 6.710938 -2.21875 4.726562 -4.375 4.316406 -7.234375 L 17.417969 -7.234375 Z M 9.308594 -14.207031 C 12.339844 -14.207031 14.003906 -12.222656 14.355469 -9.773438 L 4.347656 -9.773438 C 4.8125 -12.28125 6.5625 -14.207031 9.308594 -14.207031 Z M 9.308594 -14.207031 "/></g></g></g></svg>